# xmcd
#
# Track frame offsets: 
#        150
#        17370
#        34224
#        51074
#        66954
#        81145
#        96491
#        113267
#
# Disc length: 1718 seconds
#
# Revision: 2
# Processed by: cddbd v1.5.2PL0 Copyright (c) Steve Scherf et al.
# Submitted via: ExactAudioCopy v1.0b4
#
DISCID=5a06b408
DTITLE=milomir miljanić-miljan - buntovnik
DYEAR=2011
DGENRE=folk
TTITLE0=buntovnik
TTITLE1=siročići
TTITLE2=vratiću se
TTITLE3=ima nešto, ima, ima
TTITLE4=nije on za tebe
TTITLE5=punoletstvo
TTITLE6=dinaro
TTITLE7=sv. jovan krstitelj
EXTD=
EXTT0=
EXTT1=
EXTT2=
EXTT3=
EXTT4=
EXTT5=
EXTT6=
EXTT7=
PLAYORDER=
